<svg width="190" height="50" viewBox="0 0 190 50" fill="none" xmlns="http://www.w3.org/2000/svg">
<path d="M27.3125 1.40626C26.9479 2.23959 26.6224 2.96876 26.3359 3.59376C26.0495 4.21876 25.8021 4.75261 25.5938 5.19532C25.3594 5.69011 25.1641 6.13282 25.0078 6.52344C24.8776 6.8099 24.7083 7.20053 24.5 7.69532C24.2917 8.13803 24.0312 8.72396 23.7188 9.45313C23.4323 10.1563 23.0547 11.0677 22.5859 12.1875C22.3516 11.224 22.0651 10.3776 21.7266 9.64844C21.388 8.91928 21.0234 8.28126 20.6328 7.73438C20.2422 7.18751 19.8255 6.7448 19.3828 6.40626C18.9661 6.04167 18.5495 5.74219 18.1328 5.50782C17.1693 4.98699 16.1536 4.70053 15.0859 4.64844C13.6797 4.72657 12.5729 4.96094 11.7656 5.35157C10.9844 5.71615 10.4115 6.14584 10.0469 6.64063C9.68229 7.10938 9.48698 7.60417 9.46094 8.12501C9.4349 8.6198 9.5 9.03647 9.65625 9.37501C9.78646 9.68751 10.2422 10.0521 11.0234 10.4688C11.8307 10.8854 12.7943 11.3672 13.9141 11.9141C15.0599 12.4349 16.2839 13.0339 17.5859 13.7109C18.888 14.362 20.0859 15.0912 21.1797 15.8984C22.2995 16.6797 23.237 17.5391 23.9922 18.4766C24.7734 19.388 25.2031 20.3646 25.2812 21.4063C25.3594 22.7344 25.3464 23.9323 25.2422 25C25.138 26.0677 24.7734 26.9792 24.1484 27.7344C23.5234 28.4896 22.5469 29.0885 21.2188 29.5313C19.9167 29.974 18.1068 30.2474 15.7891 30.3516C13.3932 30.4557 11.4271 30.3255 9.89062 29.9609C8.35417 29.5964 7.10417 29.1016 6.14062 28.4766C5.20312 27.8516 4.5 27.1615 4.03125 26.4063C3.58854 25.651 3.26302 24.9349 3.05469 24.2578C2.84635 23.5547 2.70312 22.9557 2.625 22.4609C2.54688 21.9401 2.41667 21.6276 2.23438 21.5234C2.02604 21.3932 1.81771 21.276 1.60938 21.1719C1.42708 21.0677 1.23177 20.9766 1.02344 20.8984C0.815104 20.7943 0.606771 20.7031 0.398438 20.625L11.7656 18.7891C11.1146 19.3099 10.6068 19.7917 10.2422 20.2344C9.90365 20.6771 9.64323 21.0677 9.46094 21.4063C9.2526 21.7969 9.10938 22.1615 9.03125 22.5C8.97917 22.8646 9.09635 23.3203 9.38281 23.8672C9.66927 24.4141 10.0599 24.9479 10.5547 25.4688C11.0755 25.9635 11.6745 26.3802 12.3516 26.7188C13.0286 27.0573 13.7318 27.2005 14.4609 27.1484C15.3724 27.0703 16.1146 26.849 16.6875 26.4844C17.2604 26.0938 17.6901 25.612 17.9766 25.0391C18.2891 24.4662 18.4714 23.8412 18.5234 23.1641C18.5755 22.487 18.5104 21.8229 18.3281 21.1719C18.1719 20.4948 17.9115 19.8698 17.5469 19.2969C17.1823 18.6979 16.7526 18.2031 16.2578 17.8125C15.8151 17.5 15.125 17.2005 14.1875 16.9141C13.276 16.6276 12.2474 16.3151 11.1016 15.9766C9.98177 15.638 8.82292 15.2474 7.625 14.8047C6.45312 14.362 5.38542 13.8151 4.42188 13.1641C3.48438 12.513 2.72917 11.7448 2.15625 10.8594C1.60938 9.97396 1.40104 8.90626 1.53125 7.65626C1.63542 6.58855 1.97396 5.70313 2.54688 5.00001C3.14583 4.27084 3.88802 3.69792 4.77344 3.28126C5.6849 2.83855 6.6875 2.51303 7.78125 2.30469C8.90104 2.09636 10.0339 1.97917 11.1797 1.95313C12.3516 1.90105 13.4974 1.91407 14.6172 1.99219C15.763 2.07032 16.7917 2.16147 17.7031 2.26563C18.6146 2.3698 19.3828 2.47397 20.0078 2.57813C20.6589 2.65626 21.0625 2.70834 21.2188 2.73438C21.8958 2.78647 22.5729 2.77344 23.25 2.69532C23.849 2.64324 24.5 2.52605 25.2031 2.34376C25.9323 2.13542 26.6354 1.82292 27.3125 1.40626Z" fill="black"/>
<path d="M27.2344 5.39063C28.0156 5.46876 28.6667 5.53386 29.1875 5.58594C29.7344 5.63803 30.1771 5.67709 30.5156 5.70313C30.9062 5.72917 31.2188 5.74219 31.4531 5.74219C31.6875 5.76824 32 5.76824 32.3906 5.74219C32.7292 5.71615 33.1719 5.69011 33.7188 5.66407C34.2656 5.61199 34.9557 5.53386 35.7891 5.42969C35.6068 5.69011 35.4635 5.92449 35.3594 6.13282C35.2552 6.31511 35.1641 6.48438 35.0859 6.64063L34.8516 7.10938C34.7995 7.26563 34.7474 7.42188 34.6953 7.57813C34.6432 7.70834 34.5911 7.86459 34.5391 8.04688C34.513 8.22917 34.487 8.42449 34.4609 8.63282H40.4766L39.9297 11.7969L34.4219 11.4844C34.2917 12.8125 34.2005 13.8412 34.1484 14.5703C34.0964 15.2995 34.0443 15.8333 33.9922 16.1719L33.9141 16.875C33.8359 17.8646 33.7578 18.9453 33.6797 20.1172C33.6016 21.263 33.5755 22.3307 33.6016 23.3203C33.6276 24.3099 33.7188 25.1432 33.875 25.8203C34.0312 26.4714 34.3047 26.7969 34.6953 26.7969C35.0859 26.7969 35.4505 26.6927 35.7891 26.4844C36.1276 26.276 36.4141 26.0287 36.6484 25.7422C36.9089 25.4557 37.1042 25.1693 37.2344 24.8828C37.3646 24.5703 37.4297 24.3359 37.4297 24.1797C37.4297 24.0234 37.3906 23.8412 37.3125 23.6328C37.1823 23.2422 36.9479 22.7474 36.6094 22.1484C37.3646 22.3307 38.0286 22.513 38.6016 22.6953C38.888 22.7995 39.1484 22.9037 39.3828 23.0078C39.6432 23.112 39.9427 23.2292 40.2812 23.3594C40.5677 23.4896 40.9323 23.6458 41.375 23.8281C41.8177 24.0104 42.3385 24.2318 42.9375 24.4922C42.3646 24.5964 41.9479 24.7656 41.6875 25C41.5312 25.1042 41.4141 25.2214 41.3359 25.3516C41.1536 25.638 40.9453 26.0287 40.7109 26.5234C40.4766 26.9922 40.125 27.4609 39.6562 27.9297C39.1875 28.3984 38.5495 28.8151 37.7422 29.1797C36.9609 29.5443 35.9062 29.7526 34.5781 29.8047C33.1979 29.8568 32.1432 29.6224 31.4141 29.1016C30.7109 28.5807 30.1901 27.9818 29.8516 27.3047C29.5391 26.6016 29.3568 25.9115 29.3047 25.2344C29.2526 24.5573 29.2135 24.1016 29.1875 23.8672C29.1615 23.6328 29.1615 23.0469 29.1875 22.1094C29.2135 21.1719 29.2526 20.1432 29.3047 19.0234C29.3568 17.8776 29.4089 16.7839 29.4609 15.7422C29.513 14.6745 29.5391 13.8932 29.5391 13.3984C29.5391 13.138 29.5521 12.8646 29.5781 12.5781C29.5781 12.3438 29.5781 12.0964 29.5781 11.8359C29.6042 11.5495 29.6172 11.276 29.6172 11.0156L23.9531 10.9766L23.7188 8.75001L29.4219 8.90626C29.3698 8.6198 29.3047 8.35938 29.2266 8.12501C29.1745 7.86459 29.1224 7.65626 29.0703 7.50001C28.9922 7.31772 28.9141 7.16147 28.8359 7.03126C28.7318 6.90105 28.6146 6.75782 28.4844 6.60157C28.3542 6.47136 28.1849 6.30209 27.9766 6.09376C27.7682 5.88542 27.5208 5.65105 27.2344 5.39063Z" fill="black"/>
<path d="M41.3359 12.5391L48.5234 12.6172C48.1068 14.2057 47.7943 15.5599 47.5859 16.6797C47.4036 17.7995 47.2865 18.737 47.2344 19.4922C47.1302 20.3516 47.1042 21.0807 47.1562 21.6797C47.2344 22.2266 47.3646 22.8125 47.5469 23.4375C47.7031 23.9583 47.9375 24.5573 48.25 25.2344C48.5625 25.9115 48.9792 26.5885 49.5 27.2656C49.1875 27.1615 48.849 27.0833 48.4844 27.0313C48.1198 26.9792 47.7812 26.9401 47.4688 26.9141C47.1042 26.888 46.7396 26.888 46.375 26.9141C46.0104 26.9401 45.6068 26.9792 45.1641 27.0313C44.7995 27.0833 44.3568 27.1484 43.8359 27.2266C43.3151 27.3047 42.7682 27.4089 42.1953 27.5391C42.5859 26.3672 42.8854 25.3516 43.0938 24.4922C43.3281 23.6328 43.4974 22.9167 43.6016 22.3438C43.7057 21.6667 43.7708 21.1198 43.7969 20.7031C43.7969 20.1823 43.7969 19.5964 43.7969 18.9453C43.7969 18.2682 43.7969 17.6172 43.7969 16.9922C43.7969 16.3672 43.7839 15.8203 43.7578 15.3516C43.7318 14.8568 43.6797 14.5443 43.6016 14.4141L43.2109 14.0234C43.0547 13.8932 42.8203 13.7109 42.5078 13.4766C42.2214 13.2162 41.8307 12.9037 41.3359 12.5391ZM44.1094 6.52344C44.6562 6.23699 45.2031 6.15886 45.75 6.28907C46.3229 6.41928 46.7656 6.66667 47.0781 7.03126C47.3906 7.39584 47.4948 7.82553 47.3906 8.32032C47.3125 8.81511 46.8958 9.29688 46.1406 9.76563C45.3854 10.2083 44.7214 10.3646 44.1484 10.2344C43.5755 10.1042 43.1719 9.83074 42.9375 9.41407C42.7031 8.9974 42.6641 8.51563 42.8203 7.96876C42.9766 7.39584 43.4062 6.91407 44.1094 6.52344Z" fill="black"/>
<path d="M51.1016 1.67969C51.8568 1.8099 52.5208 1.90105 53.0938 1.95313C53.6927 2.00522 54.1875 2.04428 54.5781 2.07032C55.0469 2.09636 55.4505 2.10938 55.7891 2.10938C56.1276 2.10938 56.6094 2.08334 57.2344 2.03126C57.7552 1.97917 58.4323 1.91407 59.2656 1.83594C60.125 1.75782 61.1797 1.62761 62.4297 1.44532C62.0651 1.54949 61.7266 1.84897 61.4141 2.34376C61.1276 2.81251 60.8672 3.32032 60.6328 3.86719C60.3464 4.51824 60.099 5.23438 59.8906 6.01563C59.7083 6.71876 59.474 7.6823 59.1875 8.90626C58.9271 10.1302 58.6667 11.4583 58.4062 12.8906C58.1719 14.3229 57.9896 15.7813 57.8594 17.2656C57.7292 18.724 57.7031 20.0651 57.7812 21.2891C57.8854 22.513 58.1328 23.5287 58.5234 24.3359C58.9141 25.1172 59.513 25.5339 60.3203 25.5859C61.5443 25.6901 62.5599 25.7031 63.3672 25.625C64.2005 25.5208 64.8776 25.3776 65.3984 25.1953C65.9193 25.013 66.3229 24.8047 66.6094 24.5703C66.8958 24.3099 67.1172 24.0625 67.2734 23.8281C67.6901 23.2292 68.1198 22.4609 68.5625 21.5234C69.0052 20.5859 69.3958 19.6875 69.7344 18.8281C70.099 17.9688 70.3984 17.2396 70.6328 16.6406C70.8672 16.0417 70.9844 15.7552 70.9844 15.7813C70.9844 15.8333 70.9714 16.1328 70.9453 16.6797C70.9453 17.2005 70.9323 17.8385 70.9062 18.5938C70.9062 19.3229 70.8932 20.0912 70.8672 20.8984C70.8672 21.7057 70.8542 22.3958 70.8281 22.9688C70.8021 23.4375 70.776 23.9583 70.75 24.5313C70.724 25.026 70.6979 25.612 70.6719 26.2891C70.6719 26.9662 70.6458 27.7083 70.5938 28.5156C69.5 28.4375 68.4583 28.3854 67.4688 28.3594C66.4792 28.3333 65.6068 28.3203 64.8516 28.3203C63.9661 28.3203 63.1458 28.3333 62.3906 28.3594C61.5833 28.3854 60.6458 28.4245 59.5781 28.4766C58.6667 28.5287 57.5339 28.5938 56.1797 28.6719C54.8255 28.724 53.263 28.8021 51.4922 28.9063C51.7005 28.5417 51.8698 28.2031 52 27.8906C52.1562 27.5781 52.2734 27.3177 52.3516 27.1094C52.4557 26.849 52.5208 26.6276 52.5469 26.4453C52.7031 25.612 52.8333 24.5573 52.9375 23.2813C53.0417 21.9792 53.1198 20.599 53.1719 19.1406C53.25 17.6823 53.2891 16.1979 53.2891 14.6875C53.3151 13.151 53.3151 11.7318 53.2891 10.4297C53.263 9.12761 53.2109 7.9948 53.1328 7.03126C53.0807 6.06772 53.0026 5.40365 52.8984 5.03907C52.7682 4.6224 52.612 4.20574 52.4297 3.78907C52.2734 3.42449 52.0781 3.0599 51.8438 2.69532C51.6354 2.30469 51.388 1.96615 51.1016 1.67969Z" fill="black"/>
<path d="M72.9766 1.67969C73.7318 1.8099 74.3958 1.90105 74.9688 1.95313C75.5677 2.00522 76.0625 2.04428 76.4531 2.07032C76.9219 2.09636 77.3255 2.10938 77.6641 2.10938C78.0026 2.10938 78.4844 2.08334 79.1094 2.03126C79.6302 1.97917 80.3073 1.91407 81.1406 1.83594C82 1.75782 83.0547 1.62761 84.3047 1.44532C83.9401 1.54949 83.6016 1.84897 83.2891 2.34376C83.0026 2.81251 82.7422 3.32032 82.5078 3.86719C82.2214 4.51824 81.974 5.23438 81.7656 6.01563C81.5833 6.71876 81.349 7.6823 81.0625 8.90626C80.8021 10.1302 80.5417 11.4583 80.2812 12.8906C80.0469 14.3229 79.8646 15.7813 79.7344 17.2656C79.6042 18.724 79.5781 20.0651 79.6562 21.2891C79.7604 22.513 80.0078 23.5287 80.3984 24.3359C80.7891 25.1172 81.388 25.5339 82.1953 25.5859C83.4193 25.6901 84.4349 25.7031 85.2422 25.625C86.0755 25.5208 86.7526 25.3776 87.2734 25.1953C87.7943 25.013 88.1979 24.8047 88.4844 24.5703C88.7708 24.3099 88.9922 24.0625 89.1484 23.8281C89.5651 23.2292 89.9948 22.4609 90.4375 21.5234C90.8802 20.5859 91.2708 19.6875 91.6094 18.8281C91.974 17.9688 92.2734 17.2396 92.5078 16.6406C92.7422 16.0417 92.8594 15.7552 92.8594 15.7813C92.8594 15.8333 92.8464 16.1328 92.8203 16.6797C92.8203 17.2005 92.8073 17.8385 92.7812 18.5938C92.7812 19.3229 92.7682 20.0912 92.7422 20.8984C92.7422 21.7057 92.7292 22.3958 92.7031 22.9688C92.6771 23.4375 92.651 23.9583 92.625 24.5313C92.599 25.026 92.5729 25.612 92.5469 26.2891C92.5469 26.9662 92.5208 27.7083 92.4688 28.5156C91.375 28.4375 90.3333 28.3854 89.3438 28.3594C88.3542 28.3333 87.4818 28.3203 86.7266 28.3203C85.8411 28.3203 85.0208 28.3333 84.2656 28.3594C83.4583 28.3854 82.5208 28.4245 81.4531 28.4766C80.5417 28.5287 79.4089 28.5938 78.0547 28.6719C76.7005 28.724 75.138 28.8021 73.3672 28.9063C73.5755 28.5417 73.7448 28.2031 73.875 27.8906C74.0312 27.5781 74.1484 27.3177 74.2266 27.1094C74.3307 26.849 74.3958 26.6276 74.4219 26.4453C74.5781 25.612 74.7083 24.5573 74.8125 23.2813C74.9167 21.9792 74.9948 20.599 75.0469 19.1406C75.125 17.6823 75.1641 16.1979 75.1641 14.6875C75.1901 13.151 75.1901 11.7318 75.1641 10.4297C75.138 9.12761 75.0859 7.9948 75.0078 7.03126C74.9557 6.06772 74.8776 5.40365 74.7734 5.03907C74.6432 4.6224 74.487 4.20574 74.3047 3.78907C74.1484 3.42449 73.9531 3.0599 73.7188 2.69532C73.5104 2.30469 73.263 1.96615 72.9766 1.67969Z" fill="black"/>
<path d="M106.688 2.07032C107.521 2.27865 108.315 2.4349 109.07 2.53907C109.826 2.64324 110.49 2.72136 111.062 2.77344C111.74 2.85157 112.365 2.87761 112.938 2.85157C113.667 2.85157 114.578 2.78647 115.672 2.65626C116.792 2.52605 117.938 2.40886 119.109 2.30469C120.281 2.17449 121.401 2.09636 122.469 2.07032C123.562 2.01824 124.448 2.08334 125.125 2.26563C125.802 2.42188 126.492 2.66928 127.195 3.00782C127.924 3.32032 128.589 3.72397 129.188 4.21876C129.786 4.68751 130.281 5.2474 130.672 5.89844C131.062 6.52344 131.284 7.23959 131.336 8.04688C131.31 9.06251 131.076 10.013 130.633 10.8984C130.268 11.6537 129.656 12.4349 128.797 13.2422C127.938 14.0234 126.701 14.6224 125.086 15.0391C125.893 15.1432 126.583 15.3255 127.156 15.5859C127.755 15.8203 128.263 16.1068 128.68 16.4453C129.122 16.7578 129.474 17.1094 129.734 17.5C130.021 17.8906 130.242 18.2813 130.398 18.6719C130.789 19.5833 130.971 20.599 130.945 21.7188C130.789 23.1771 130.49 24.3359 130.047 25.1953C129.63 26.0547 129.148 26.7188 128.602 27.1875C128.055 27.6563 127.495 27.9818 126.922 28.1641C126.349 28.3464 125.828 28.4896 125.359 28.5938C124.891 28.6979 124.318 28.75 123.641 28.75C122.964 28.75 122.234 28.737 121.453 28.7109C120.698 28.6589 119.917 28.6198 119.109 28.5938C118.302 28.5417 117.534 28.5417 116.805 28.5938C116.206 28.6458 115.477 28.6979 114.617 28.75C113.888 28.8021 112.977 28.8672 111.883 28.9453C110.789 28.9974 109.513 29.0625 108.055 29.1406C108.341 28.9323 108.576 28.6979 108.758 28.4375C108.966 28.151 109.135 27.9037 109.266 27.6953C109.396 27.4349 109.513 27.1875 109.617 26.9531C109.695 26.7448 109.76 26.1719 109.812 25.2344C109.865 24.2969 109.904 23.1771 109.93 21.875C109.956 20.5469 109.969 19.1276 109.969 17.6172C109.995 16.0807 109.982 14.6094 109.93 13.2031C109.904 11.7708 109.852 10.5078 109.773 9.41407C109.721 8.29428 109.643 7.48699 109.539 6.99219C109.383 6.44532 109.174 5.88542 108.914 5.31251C108.706 4.81772 108.406 4.28386 108.016 3.71094C107.651 3.13803 107.208 2.59115 106.688 2.07032ZM114.93 6.05469C114.93 6.15886 114.943 6.51042 114.969 7.10938C114.995 7.63022 115.021 8.43751 115.047 9.53126C115.099 10.599 115.164 12.1224 115.242 14.1016C115.893 14.388 116.531 14.5443 117.156 14.5703C117.781 14.5703 118.341 14.5443 118.836 14.4922C119.409 14.4141 119.956 14.2839 120.477 14.1016C121.18 13.8151 121.727 13.3464 122.117 12.6953C122.534 12.0443 122.807 11.3672 122.938 10.6641C123.094 9.9349 123.133 9.25782 123.055 8.63282C122.977 7.98178 122.807 7.51303 122.547 7.22657C122.052 6.78386 121.44 6.41928 120.711 6.13282C120.086 5.89844 119.292 5.74219 118.328 5.66407C117.391 5.5599 116.258 5.69011 114.93 6.05469ZM114.734 24.5703C115.698 25.0651 116.544 25.3906 117.273 25.5469C118.003 25.7031 118.615 25.7813 119.109 25.7813C119.682 25.7813 120.177 25.7031 120.594 25.5469C121.089 25.3125 121.57 25 122.039 24.6094C122.534 24.1927 122.898 23.7109 123.133 23.1641C123.393 22.5912 123.497 21.9662 123.445 21.2891C123.393 20.5859 123.094 19.8177 122.547 18.9844C122.052 18.3854 121.453 17.9167 120.75 17.5781C120.125 17.2917 119.331 17.1094 118.367 17.0313C117.43 16.9531 116.271 17.1745 114.891 17.6953L114.734 24.5703Z" fill="black"/>
<path d="M146.414 0.546882C147.82 0.598965 149.24 0.859382 150.672 1.32813C152.13 1.77084 153.471 2.50001 154.695 3.51563C155.919 4.50522 156.961 5.79428 157.82 7.38282C158.68 8.94532 159.214 10.8594 159.422 13.125C159.604 14.974 159.37 16.8099 158.719 18.6328C158.094 20.4297 157.221 22.0833 156.102 23.5938C154.982 25.1042 153.693 26.3932 152.234 27.4609C150.776 28.5026 149.318 29.1927 147.859 29.5313C146.974 29.7396 145.997 29.7656 144.93 29.6094C143.888 29.4271 142.82 29.1016 141.727 28.6328C140.659 28.138 139.604 27.513 138.562 26.7578C137.547 26.0026 136.622 25.1432 135.789 24.1797C134.956 23.1901 134.253 22.1224 133.68 20.9766C133.133 19.8307 132.794 18.6328 132.664 17.3828C132.534 16.3412 132.521 15.1953 132.625 13.9453C132.755 12.6693 133.003 11.4063 133.367 10.1563C133.758 8.88022 134.292 7.65626 134.969 6.48438C135.672 5.28647 136.557 4.2448 137.625 3.35938C138.693 2.44792 139.943 1.7448 141.375 1.25001C142.833 0.729174 144.513 0.494799 146.414 0.546882ZM139.422 16.3672C139.057 19.1537 139.318 21.3932 140.203 23.0859C141.115 24.7787 142.482 25.8073 144.305 26.1719C145.19 26.3542 146.036 26.1719 146.844 25.625C147.677 25.0521 148.432 24.2318 149.109 23.1641C149.786 22.0964 150.372 20.8464 150.867 19.4141C151.362 17.9818 151.727 16.4844 151.961 14.9219C152.195 13.3594 152.208 11.9531 152 10.7031C151.818 9.42709 151.492 8.34636 151.023 7.46094C150.555 6.54949 149.982 5.84636 149.305 5.35157C148.654 4.85678 147.977 4.58334 147.273 4.53126C146.049 4.45313 144.982 4.77865 144.07 5.50782C143.159 6.21094 142.391 7.13542 141.766 8.28126C141.141 9.42709 140.633 10.7162 140.242 12.1484C139.878 13.5807 139.604 14.987 139.422 16.3672Z" fill="black"/>
<path d="M160.398 5.39063C161.18 5.46876 161.831 5.53386 162.352 5.58594C162.898 5.63803 163.341 5.67709 163.68 5.70313C164.07 5.72917 164.383 5.74219 164.617 5.74219C164.852 5.76824 165.164 5.76824 165.555 5.74219C165.893 5.71615 166.336 5.69011 166.883 5.66407C167.43 5.61199 168.12 5.53386 168.953 5.42969C168.771 5.69011 168.628 5.92449 168.523 6.13282C168.419 6.31511 168.328 6.48438 168.25 6.64063L168.016 7.10938C167.964 7.26563 167.911 7.42188 167.859 7.57813C167.807 7.70834 167.755 7.86459 167.703 8.04688C167.677 8.22917 167.651 8.42449 167.625 8.63282H173.641L173.094 11.7969L167.586 11.4844C167.456 12.8125 167.365 13.8412 167.312 14.5703C167.26 15.2995 167.208 15.8333 167.156 16.1719L167.078 16.875C167 17.8646 166.922 18.9453 166.844 20.1172C166.766 21.263 166.74 22.3307 166.766 23.3203C166.792 24.3099 166.883 25.1432 167.039 25.8203C167.195 26.4714 167.469 26.7969 167.859 26.7969C168.25 26.7969 168.615 26.6927 168.953 26.4844C169.292 26.276 169.578 26.0287 169.812 25.7422C170.073 25.4557 170.268 25.1693 170.398 24.8828C170.529 24.5703 170.594 24.3359 170.594 24.1797C170.594 24.0234 170.555 23.8412 170.477 23.6328C170.346 23.2422 170.112 22.7474 169.773 22.1484C170.529 22.3307 171.193 22.513 171.766 22.6953C172.052 22.7995 172.312 22.9037 172.547 23.0078C172.807 23.112 173.107 23.2292 173.445 23.3594C173.732 23.4896 174.096 23.6458 174.539 23.8281C174.982 24.0104 175.503 24.2318 176.102 24.4922C175.529 24.5964 175.112 24.7656 174.852 25C174.695 25.1042 174.578 25.2214 174.5 25.3516C174.318 25.638 174.109 26.0287 173.875 26.5234C173.641 26.9922 173.289 27.4609 172.82 27.9297C172.352 28.3984 171.714 28.8151 170.906 29.1797C170.125 29.5443 169.07 29.7526 167.742 29.8047C166.362 29.8568 165.307 29.6224 164.578 29.1016C163.875 28.5807 163.354 27.9818 163.016 27.3047C162.703 26.6016 162.521 25.9115 162.469 25.2344C162.417 24.5573 162.378 24.1016 162.352 23.8672C162.326 23.6328 162.326 23.0469 162.352 22.1094C162.378 21.1719 162.417 20.1432 162.469 19.0234C162.521 17.8776 162.573 16.7839 162.625 15.7422C162.677 14.6745 162.703 13.8932 162.703 13.3984C162.703 13.138 162.716 12.8646 162.742 12.5781C162.742 12.3438 162.742 12.0964 162.742 11.8359C162.768 11.5495 162.781 11.276 162.781 11.0156L157.117 10.9766L156.883 8.75001L162.586 8.90626C162.534 8.6198 162.469 8.35938 162.391 8.12501C162.339 7.86459 162.286 7.65626 162.234 7.50001C162.156 7.31772 162.078 7.16147 162 7.03126C161.896 6.90105 161.779 6.75782 161.648 6.60157C161.518 6.47136 161.349 6.30209 161.141 6.09376C160.932 5.88542 160.685 5.65105 160.398 5.39063Z" fill="black"/>
<path d="M174.031 5.39063C174.812 5.46876 175.464 5.53386 175.984 5.58594C176.531 5.63803 176.974 5.67709 177.312 5.70313C177.703 5.72917 178.016 5.74219 178.25 5.74219C178.484 5.76824 178.797 5.76824 179.188 5.74219C179.526 5.71615 179.969 5.69011 180.516 5.66407C181.062 5.61199 181.753 5.53386 182.586 5.42969C182.404 5.69011 182.26 5.92449 182.156 6.13282C182.052 6.31511 181.961 6.48438 181.883 6.64063L181.648 7.10938C181.596 7.26563 181.544 7.42188 181.492 7.57813C181.44 7.70834 181.388 7.86459 181.336 8.04688C181.31 8.22917 181.284 8.42449 181.258 8.63282H187.273L186.727 11.7969L181.219 11.4844C181.089 12.8125 180.997 13.8412 180.945 14.5703C180.893 15.2995 180.841 15.8333 180.789 16.1719L180.711 16.875C180.633 17.8646 180.555 18.9453 180.477 20.1172C180.398 21.263 180.372 22.3307 180.398 23.3203C180.424 24.3099 180.516 25.1432 180.672 25.8203C180.828 26.4714 181.102 26.7969 181.492 26.7969C181.883 26.7969 182.247 26.6927 182.586 26.4844C182.924 26.276 183.211 26.0287 183.445 25.7422C183.706 25.4557 183.901 25.1693 184.031 24.8828C184.161 24.5703 184.227 24.3359 184.227 24.1797C184.227 24.0234 184.188 23.8412 184.109 23.6328C183.979 23.2422 183.745 22.7474 183.406 22.1484C184.161 22.3307 184.826 22.513 185.398 22.6953C185.685 22.7995 185.945 22.9037 186.18 23.0078C186.44 23.112 186.74 23.2292 187.078 23.3594C187.365 23.4896 187.729 23.6458 188.172 23.8281C188.615 24.0104 189.135 24.2318 189.734 24.4922C189.161 24.5964 188.745 24.7656 188.484 25C188.328 25.1042 188.211 25.2214 188.133 25.3516C187.951 25.638 187.742 26.0287 187.508 26.5234C187.273 26.9922 186.922 27.4609 186.453 27.9297C185.984 28.3984 185.346 28.8151 184.539 29.1797C183.758 29.5443 182.703 29.7526 181.375 29.8047C179.995 29.8568 178.94 29.6224 178.211 29.1016C177.508 28.5807 176.987 27.9818 176.648 27.3047C176.336 26.6016 176.154 25.9115 176.102 25.2344C176.049 24.5573 176.01 24.1016 175.984 23.8672C175.958 23.6328 175.958 23.0469 175.984 22.1094C176.01 21.1719 176.049 20.1432 176.102 19.0234C176.154 17.8776 176.206 16.7839 176.258 15.7422C176.31 14.6745 176.336 13.8932 176.336 13.3984C176.336 13.138 176.349 12.8646 176.375 12.5781C176.375 12.3438 176.375 12.0964 176.375 11.8359C176.401 11.5495 176.414 11.276 176.414 11.0156L170.75 10.9766L170.516 8.75001L176.219 8.90626C176.167 8.6198 176.102 8.35938 176.023 8.12501C175.971 7.86459 175.919 7.65626 175.867 7.50001C175.789 7.31772 175.711 7.16147 175.633 7.03126C175.529 6.90105 175.411 6.75782 175.281 6.60157C175.151 6.47136 174.982 6.30209 174.773 6.09376C174.565 5.88542 174.318 5.65105 174.031 5.39063Z" fill="black"/>
<path d="M2 45L9 36L20 45L28 36L39 45L47 36L56 45L61 36L68 45L76 36L83 45L88 36L92 42" stroke="#F60000" stroke-width="4"/>
<path d="M106 46L111 34L125 46L132 34L144 46L150 34L159 46L166 34L175 46L182 34L187 46" stroke="#F60000" stroke-width="4"/>
</svg>
